<svg width="375" height="100" viewBox="0 0 375 100" fill="none" xmlns="http://www.w3.org/2000/svg">
<path d="M586.499 17.8751L546.546 0.569995H213.869L138.174 33.3561H-465.382L-541.077 0.569995H-750V52.4624H222.607L329.99 98.974H831.322L938.705 52.4624H1170V17.8751H586.499Z" fill="url(#paint0_radial_2129_773)"/>
<path d="M546.546 0.569995H213.869L156.177 25.5358H351.888L459.271 72.0474H776.63L884.013 25.5358H1170V17.8751H586.499L546.546 0.569995Z" fill="url(#paint1_radial_2129_773)"/>
<path d="M832.269 100H329.043L328.306 99.7036L221.659 53.4884H-750V51.4364H223.607L330.99 97.948H830.322L937.705 51.4364H1170V53.4884H939.653L832.269 100Z" fill="url(#paint2_radial_2129_773)"/>
<path d="M138.701 33.9261H-465.961L-541.656 1.13999H-750V0H-540.55L-464.856 32.7861H137.595L213.29 0H547.073L587.078 17.3051H1170V18.4451H585.973L546.02 1.13999H214.395L138.701 33.9261Z" fill="url(#paint3_radial_2129_773)"/>
<defs>
<radialGradient id="paint0_radial_2129_773" cx="0" cy="0" r="1" gradientUnits="userSpaceOnUse" gradientTransform="translate(335.501 123.794) scale(1109.71 488.454)">
<stop stop-color="#7B8499"/>
<stop offset="1" stop-color="#151E28"/>
</radialGradient>
<radialGradient id="paint1_radial_2129_773" cx="0" cy="0" r="1" gradientUnits="userSpaceOnUse" gradientTransform="translate(-156.429 215.343) scale(1436.02 459.493)">
<stop stop-color="#7B8499"/>
<stop offset="1" stop-color="#151E28"/>
</radialGradient>
<radialGradient id="paint2_radial_2129_773" cx="0" cy="0" r="1" gradientUnits="userSpaceOnUse" gradientTransform="translate(209.99 113.635) scale(866.149 772.515)">
<stop stop-color="#B8BFC9"/>
<stop offset="1" stop-color="#151E28"/>
</radialGradient>
<radialGradient id="paint3_radial_2129_773" cx="0" cy="0" r="1" gradientUnits="userSpaceOnUse" gradientTransform="translate(209.99 16.9615) scale(1011.41 438.078)">
<stop stop-color="#3D4753"/>
<stop offset="1" stop-color="#0B1318"/>
</radialGradient>
</defs>
</svg>
