<svg width="224" height="153" viewBox="0 0 224 153" fill="none" xmlns="http://www.w3.org/2000/svg">
<path fill-rule="evenodd" clip-rule="evenodd" d="M16.2511 66.0307L44.8426 38.939H107.626L130.916 14.809L207.749 15.0703L208.01 107.005L176.376 138.627L47.8842 138.539L16.2511 119.462V66.0307Z" fill="#0D2021" fill-opacity="0.5"/>
<path d="M15.0344 64.8112L43.6259 37.6323L44.1473 37.1096H106.931L129.7 13.5023L130.221 12.9797H131.003L207.923 13.241H209.661V14.9832L209.835 106.918V107.615L177.072 140.456L47.4497 140.369L14.4261 120.507V65.3338L15.0344 64.8112ZM45.5378 40.6812L17.9892 66.8147V118.504L48.4056 136.797L175.594 136.884L206.185 106.221L206.011 16.7255L131.611 16.4641L108.843 39.9843L108.321 40.507H107.539L45.5378 40.6812Z" fill="#02F7EA" fill-opacity="0.3"/>
<path d="M103.889 25.5238L127.875 0.784006L128.396 0.261335H152.208V3.83292H129.873L105.888 28.5727L105.366 29.0953H90.2451V25.5238H103.889ZM192.628 0.261335V3.83292H164.722V0.261335H192.628ZM224 0V19.8615H220.437V3.57158H204.447V0H224ZM224 85.0528H220.437V28.6598H224V85.0528ZM224 97.1613V115.106L186.197 153H167.425V149.428H184.719L220.35 113.713V96.3773H223.913V97.1613H224ZM72.4781 153V149.428H152.999V153H72.4781ZM57.8782 153H38.064L37.8902 152.913L37.6295 152.739L0.869042 130.525L0 130.002V108.312H3.56307V127.912L39.1069 149.341H58.7472V152.913H57.8782V153ZM0.0869042 60.8911L0.608329 60.3685L37.3688 26.0464L37.8902 25.5238H57.7913V29.0953H39.3676L3.73688 62.4592V79.7073H0.0869042V60.8911Z" fill="#02F7EA" fill-opacity="0.3"/>
</svg>
