<svg width="346" height="127" viewBox="0 0 346 127" fill="none" xmlns="http://www.w3.org/2000/svg">
<path fill-rule="evenodd" clip-rule="evenodd" d="M25.1021 54.8098L69.2658 32.3219H166.244L202.219 12.2924L320.898 12.5094L321.301 88.8211L272.439 115.069L73.964 114.997L25.1021 99.1612V54.8098Z" fill="#0D2021" fill-opacity="0.5"/>
<path d="M23.2228 53.7975L67.3864 31.2373L68.1919 30.8034H165.17L200.34 11.2078L201.145 10.774H202.353L321.166 10.9909H323.851V12.4371L324.12 88.7488V89.3273L273.513 116.588L73.2928 116.515L22.2832 100.029V54.2314L23.2228 53.7975ZM70.3396 33.7681L27.7868 55.4606V98.3658L74.7694 113.551L271.231 113.623L318.482 88.1703L318.213 13.8832L203.293 13.6663L168.123 33.1896L167.317 33.6234H166.109L70.3396 33.7681Z" fill="#02F7EA" fill-opacity="0.3"/>
<path d="M160.471 21.1864L197.521 0.650776L198.326 0.216925H235.107V3.18157H200.608L163.559 23.7172L162.753 24.151H139.396V21.1864H160.471ZM297.541 0.216925V3.18157H254.437V0.216925H297.541ZM346 0V16.4863H340.496V2.96465H315.797V0H346ZM346 70.5994H340.496V23.7895H346V70.5994ZM346 80.6503V95.5458L287.607 127H258.612V124.035H285.325L340.362 94.3889V79.9995H345.866V80.6503H346ZM111.953 127V124.035H236.329V127H111.953ZM89.4011 127H58.7953L58.5269 126.928L58.1242 126.783L1.34236 108.344L0 107.911V89.9057H5.50367V106.175L60.4062 123.963H90.7435V126.928H89.4011V127ZM0.134236 50.5436L0.939652 50.1098L57.7215 21.6202L58.5269 21.1864H89.2669V24.151H60.8089L5.77215 51.8452V66.1623H0.134236V50.5436Z" fill="#02F7EA" fill-opacity="0.3"/>
</svg>
