<svg width="345" height="418" viewBox="0 0 345 418" fill="none" xmlns="http://www.w3.org/2000/svg">
<path opacity="0.5" fill-rule="evenodd" clip-rule="evenodd" d="M23.4245 4H73.5514V27.4962L265.297 28.796V4.09998L323.8 4C332.369 4 342.807 20.4974 342.807 33.5952V112.083H322.189L321.931 203.568H343L342.807 389.103C342.807 402.301 335.784 413.099 327.279 412.999L265.426 412.899L265.361 389.203L73.8092 388.403V412.799L22.7157 412.899C14.2109 412.899 3.25772 398.702 3.19329 385.504L3 203.568L20.3962 203.468L20.5251 113.482L3.25772 113.682V29.9958C3.12886 16.8979 14.8552 4 23.4245 4Z" fill="black"/>
<path d="M25.0289 0H73.8642H76.1162V3.49777V25.184H262.836L262.9 3.79758V0.299809H265.152L319.971 0H320.1C326.92 0 333.161 4.3972 337.665 11.2928C342.169 18.2884 345 27.8822 345 38.3756V38.5754L344.936 113.028V116.526H342.684H323.832L323.896 199.673H342.684H344.936V203.171L345 379.225C345 389.818 342.233 399.512 337.729 406.507C333.225 413.503 326.984 417.8 320.1 417.9H265.216H262.964V414.402L262.9 393.016L76.1805 392.816V414.502V418H73.9286H25.0932C18.2087 418 11.9675 413.703 7.39929 406.707C2.89537 399.712 0.0643417 390.018 0.0643417 379.425V203.37V199.873H2.3163H18.4017V116.926H2.3163H0V113.428V38.6754C0 27.9822 2.83103 18.3883 7.33495 11.3927C11.9032 4.29726 18.1443 0 25.0289 0ZM71.6123 6.99554H25.0289C19.3668 6.99554 14.2838 10.5933 10.552 16.2896C6.82022 21.986 4.50392 29.9809 4.50392 38.6754V109.93H20.5893H22.8413V113.428V203.37V206.868H20.5893H4.43957V379.425C4.43957 388.119 6.75587 396.014 10.4877 401.81C14.2195 407.507 19.3668 411.104 24.9646 411.104H71.5479V389.418V385.92H73.7999L265.088 386.22H267.34V389.718L267.404 411.104H320.035C325.633 411.104 330.78 407.507 334.448 401.81C338.115 396.114 340.432 388.219 340.432 379.525L340.367 206.968H321.58H319.328V203.47L319.263 113.328V109.83H321.515H340.367L340.432 38.7753V38.5754C340.432 29.9809 338.115 22.0859 334.384 16.3896C330.716 10.6932 325.569 7.09548 320.035 7.09548H319.907L267.404 7.39529L267.34 28.7817V32.2794H265.088H73.9286H71.6766V28.7817V6.99554H71.6123Z" fill="url(#paint0_linear_2138_189)"/>
<defs>
<linearGradient id="paint0_linear_2138_189" x1="-77.0989" y1="16.839" x2="379.736" y2="620.343" gradientUnits="userSpaceOnUse">
<stop stop-color="white"/>
<stop offset="0.1685" stop-color="#5E5E5E"/>
<stop offset="0.2637" stop-color="#DEDEDE"/>
<stop offset="0.3956" stop-color="#8E8E8E"/>
<stop offset="0.5421" stop-color="#636363"/>
<stop offset="0.6264" stop-color="#5F5F5F"/>
<stop offset="0.7179" stop-color="#EAEAEA"/>
<stop offset="0.7912" stop-color="white"/>
<stop offset="1" stop-color="#454545"/>
</linearGradient>
</defs>
</svg>
